HIERARCHY
ROOT Hips
{
	OFFSET 0.00000 0.00000 0.00000
	CHANNELS 6 Xposition Yposition Zposition Yrotation Zrotation Xrotation 
	JOINT Lumbar
	{
		OFFSET 0 0 0
		CHANNELS 3 Zrotation Xrotation Yrotation
		JOINT Neck
		{
			OFFSET 0.00 0.2701 0.00
			CHANNELS 3 Zrotation Xrotation Yrotation
			End Site
			{
				OFFSET 0.00 0.1379 0.00
			}
		}
		JOINT RightShoulder
		{
			OFFSET 0.0119 0.2289 0.1181
			CHANNELS 3 Zrotation Xrotation Yrotation
			JOINT RightElbow
			{
				OFFSET 0.00 -0.1475 0.00
				CHANNELS 2 Zrotation Yrotation
				JOINT RightWrist
				{
					OFFSET 0.00 -0.1605 0.00
					CHANNELS 2 Zrotation Xrotation
					End Site
					{
						OFFSET 0.0040 -0.1068 0.0006
					}
				}
			}
		}
		JOINT LeftShoulder
		{
			OFFSET 0.0119 0.2289 -0.1181
			CHANNELS 3 Zrotation Xrotation Yrotation
			JOINT LeftElbow
			{
				OFFSET 0.00 -0.1475 0.00
				CHANNELS 2 Zrotation Yrotation
				JOINT LeftWrist
				{
					OFFSET 0.00 -0.1605 0.00
					CHANNELS 2 Zrotation Xrotation
					End Site
					{
						OFFSET 0.0040 -0.1068 -0.0006
					}
				}
			}
		}
	}
	JOINT RightHip
	{
		OFFSET 0.0316 -0.0424 0.0458
		CHANNELS 3 Zrotation Xrotation Yrotation
		JOINT RightKnee
		{
			OFFSET 0.00 -0.2438 0.00
			CHANNELS 1 Zrotation
			JOINT RightAnkle
			{
				OFFSET 0.00 -0.2449 0.00
				CHANNELS 3 Zrotation Xrotation Yrotation
				End Site
				{
					OFFSET 0.1237 -0.0542 0.0051
				}
			}
		}
	}
	JOINT LeftHip
	{
		OFFSET 0.0316 -0.0424 -0.0458
		CHANNELS 3 Zrotation Xrotation Yrotation
		JOINT LeftKnee
		{
			OFFSET 0.00 -0.2438 0.00
			CHANNELS 1 Zrotation
			JOINT LeftAnkle
			{
				OFFSET 0.00 -0.2449 0.00
				CHANNELS 3 Zrotation Xrotation Yrotation
				End Site
				{
					OFFSET 0.1237 -0.0542 -0.0051
				}
			}
		}
	}
}
MOTION
Frames: 29
Frame Time: 0.02
0.00551 0.55506 -0.0418 180.72091 0 1.62784 7.06271 2.72321 -7.40434 -56.40334 6.49747 4.45345 51.23554 -55.89961 6.50829 103.14093 69.31925 -9.38989 0.41451 51.06022 18.18945 -6.63945 25.15014 -114.73712 -28.22564 8.30805 13.67451 5.95948 4.42211 -38.04971 2.09146 -4.61503 -17.35982 -0.22411 10.83346 6.51763 -27.27183 -0.11263 3.62281 5.44505
0.00521 0.5569 -0.04436 181.04205 0 1.62877 6.86112 2.74275 -7.4128 -56.09506 6.49277 4.46495 50.78926 -55.4622 5.41426 103.8495 70.69167 -9.48193 -0.17665 50.71047 17.98993 -6.45896 24.48293 -113.40712 -26.59065 8.33904 13.06012 6.03906 4.09777 -36.82933 1.57888 -4.49963 -17.27223 -0.14234 10.96446 6.17846 -26.95747 -1.14837 3.51436 5.6308
0.00509 0.55859 -0.04681 181.44644 0 1.62198 6.61749 2.77918 -7.4195 -55.73614 6.49287 4.45225 50.15781 -54.89775 4.07241 104.61027 72.02241 -9.47412 -0.59086 50.29221 17.79826 -6.34427 23.89865 -111.91424 -25.07472 8.3581 12.46792 6.08897 3.66088 -35.62311 1.07441 -4.41415 -17.13865 0.07455 11.10289 5.78533 -26.81152 -2.12712 3.42257 5.83655
0.00491 0.56033 -0.04929 181.81409 0 1.61715 6.38934 2.81016 -7.42709 -55.40871 6.49359 4.45541 49.63592 -54.37679 2.84962 105.32676 73.56986 -9.63546 -1.10927 49.90938 17.59403 -6.20115 23.27762 -110.489 -23.50519 8.37875 11.86785 6.15326 3.27394 -34.4118 0.56543 -4.31525 -17.02572 0.23864 11.23612 5.41671 -26.60222 -3.12423 3.32497 6.04208
0.00465 0.56212 -0.05185 182.18045 0 1.61854 6.17603 2.83196 -7.43447 -55.04648 6.48275 4.43737 49.00505 -53.91355 1.59357 106.12937 74.43912 -9.23512 -1.54681 49.50432 17.43057 -6.04807 22.66863 -109.08177 -21.91691 8.41608 11.25893 6.21281 2.88865 -33.19522 0.0599 -4.21658 -16.91321 0.36995 11.37889 5.04542 -26.34145 -4.15512 3.21874 6.20632
0.00459 0.56379 -0.05423 182.56711 0 1.60555 5.92214 2.87674 -7.44128 -54.74381 6.497 4.4591 48.55942 -53.30138 0.35184 106.76461 76.63043 -9.99348 -2.09916 49.12975 17.18163 -5.93345 22.04827 -107.59899 -20.40207 8.41496 10.67306 6.2752 2.47527 -31.99202 -0.45104 -4.12418 -16.78865 0.59994 11.5021 4.671 -26.22607 -5.09968 3.13454 6.46378
0.00502 0.56515 -0.0562 183.00056 0 1.55117 5.56475 2.98171 -7.45363 -54.62424 6.5797 4.58256 48.65056 -52.3037 -0.8058 106.93316 82.73718 -14.00269 -3.06308 48.86954 16.71191 -5.90148 21.37494 -105.98437 -19.06565 8.31872 10.15117 6.35714 2.0021 -30.83233 -0.97682 -4.04138 -16.64808 1.07322 11.57885 4.26275 -26.4728 -5.83967 3.11211 6.95872
0.00565 0.56638 -0.058 183.4493 0 1.48317 5.16846 3.10907 -7.46436 -54.56493 6.68732 4.74915 48.93762 -51.16265 -1.9347 106.93054 90.11057 -19.17853 -4.13739 48.64032 16.15291 -5.90814 20.68564 -104.29609 -17.80135 8.18265 9.65062 6.44238 1.50657 -29.68387 -1.50857 -3.96376 -16.49591 1.63984 11.63385 3.86006 -26.85855 -6.49039 3.11086 7.54797
0.00618 0.56768 -0.05986 183.8833 0 1.42384 4.79097 3.22556 -7.47144 -54.47413 6.78336 4.90541 49.14888 -50.0899 -3.06833 107.00058 96.71644 -23.81359 -5.12491 48.38934 15.62283 -5.90191 20.00171 -102.61663 -16.50235 8.05959 9.13653 6.52335 1.02824 -28.5237 -2.03907 -3.88387 -16.34545 2.16094 11.69245 3.48015 -27.17961 -7.1698 3.09652 8.10684
0.00673 0.56897 -0.0618 184.35266 0 1.3541 4.40668 3.34546 -7.4967 -54.39973 6.88094 5.02276 49.30035 -48.99584 -4.25473 107.09241 104.12824 -28.5051 -6.25944 48.16964 15.14061 -5.87661 19.32737 -101.02751 -15.2121 7.95785 8.6395 6.61477 0.51689 -27.39165 -2.56355 -3.8047 -16.20893 2.70052 11.77758 2.99238 -27.51536 -7.90005 3.09619 8.6219
0.00729 0.57024 -0.06352 184.75149 0 1.30252 4.02858 3.46349 -7.48409 -54.3051 6.98081 5.2304 49.6221 -47.91827 -5.31002 107.09963 110.16874 -33.33751 -7.11836 47.89134 14.53944 -5.90139 18.6301 -99.24476 -13.92332 7.80209 8.11166 6.68581 0.06963 -26.20384 -3.10153 -3.72485 -16.04057 3.22124 11.80253 2.73021 -27.84837 -8.50057 3.07295 9.24002
0.00786 0.57152 -0.06471 184.94637 0 1.30765 3.6715 3.56981 -7.36417 -54.14921 7.08381 5.68807 50.39476 -46.88389 -6.10301 106.89617 112.0494 -38.44697 -7.17088 47.45928 13.61418 -6.03748 17.85572 -96.86216 -12.58671 7.50987 7.49409 6.6982 -0.18703 -24.85722 -3.67996 -3.64209 -15.79295 3.67251 11.66337 3.09958 -28.16287 -8.79421 2.96867 10.20894
0.00844 0.57279 -0.06569 185.07033 0 1.33094 3.32337 3.67359 -7.20676 -53.96958 7.18763 6.23303 51.32769 -45.8789 -6.74583 106.61638 112.51696 -43.62563 -6.94635 46.96484 12.57577 -6.22554 17.06191 -94.30372 -11.25517 7.16442 6.84476 6.69044 -0.37938 -23.45491 -4.27067 -3.55839 -15.51283 4.09962 11.46492 3.69428 -28.46392 -8.95552 2.84261 11.26203
0.009 0.57405 -0.06676 185.22993 0 1.34388 2.97493 3.77917 -7.06858 -53.7947 7.28924 6.73092 52.16933 -44.88538 -7.39612 106.38416 113.67394 -48.66027 -6.86177 46.48873 11.60027 -6.40107 16.28782 -91.88114 -9.9429 6.84109 6.20921 6.69308 -0.6059 -22.07875 -4.85311 -3.47465 -15.24403 4.53381 11.29573 4.17951 -28.75607 -9.15785 2.73503 12.21733
0.00961 0.57538 -0.06787 185.37573 0 1.36531 2.60883 3.88283 -6.92115 -53.64662 7.39974 7.26201 53.09533 -43.78109 -8.30474 106.09312 114.6796 -54.21321 -6.72228 46.05498 10.57214 -6.5314 15.46623 -89.21935 -8.54116 6.52402 5.57632 6.69048 -0.81233 -20.69735 -5.44822 -3.39257 -14.98939 4.98877 11.11617 4.69454 -29.11955 -9.43619 2.59305 13.42533
0.01013 0.57656 -0.06883 185.5332 0 1.3734 2.28267 3.98955 -6.78405 -53.43726 7.49126 7.74355 53.88148 -42.91747 -8.63677 105.90682 115.64352 -58.68484 -6.62916 45.51905 9.62921 -6.7674 14.74042 -87.0154 -7.32726 6.18317 4.93116 6.69407 -1.04513 -19.3161 -6.01838 -3.30736 -14.69764 5.39228 10.94422 5.20122 -29.32567 -9.5279 2.51591 14.12823
0.01045 0.5774 -0.0694 185.74055 0 1.34152 2.06058 4.10545 -6.68524 -53.05582 7.53275 8.07137 54.23772 -42.7029 -7.44156 106.045 116.87133 -60.17263 -6.73815 44.70566 8.93889 -7.28397 14.27336 -86.11711 -6.62047 5.778 4.25086 6.71868 -1.36518 -17.92739 -6.52831 -3.20821 -14.31221 5.66967 10.80902 5.62708 -29.13205 -9.12051 2.63509 13.39509
0.01068 0.5781 -0.06981 185.96215 0 1.29547 1.87932 4.2243 -6.59804 -52.61478 7.55451 8.34509 54.44693 -42.73159 -5.66732 106.2889 118.09242 -60.56025 -6.90155 43.79374 8.34078 -7.90382 13.90548 -85.68655 -6.10439 5.35322 3.56117 6.7503 -1.71414 -16.54524 -7.01035 -3.10689 -13.89076 5.89398 10.6832 6.037 -28.77421 -8.53348 2.81808 12.15513
0.01094 0.57884 -0.07029 186.17668 0 1.25501 1.6822 4.34172 -6.50514 -52.20648 7.58349 8.64064 54.72629 -42.65547 -4.13822 106.47445 119.28942 -61.43349 -7.0355 42.93332 7.70744 -8.47621 13.49903 -85.04303 -5.50703 4.94514 2.88126 6.77946 -2.0505 -15.17345 -7.49766 -3.01023 -13.48488 6.1352 10.5526 6.45627 -28.46978 -8.03949 2.96375 11.15904
0.01124 0.57965 -0.07081 186.3904 0 1.21848 1.47398 4.45978 -6.41267 -51.77376 7.61989 8.95159 54.99993 -42.55709 -2.67483 106.70104 120.55613 -62.37126 -7.18024 42.04106 7.04116 -9.05587 13.06408 -84.39416 -4.88597 4.50185 2.17587 6.80521 -2.38216 -13.74121 -8.01726 -2.89824 -13.07989 6.40509 10.42287 6.87552 -28.25335 -7.49201 3.14326 10.10463
0.01143 0.58028 -0.07119 186.6112 0 1.17052 1.29846 4.57684 -6.32259 -51.37775 7.63614 9.21561 55.24514 -42.56114 -0.94536 106.8679 121.68979 -62.91136 -7.31845 41.19414 6.46782 -9.6402 12.71274 -83.87088 -4.36097 4.1285 1.52311 6.83953 -2.73154 -12.43988 -8.46208 -2.81738 -12.66659 6.60419 10.29339 7.28682 -27.8163 -7.0159 3.26842 9.05545
0.01131 0.58043 -0.07126 186.839 0 1.09121 1.20342 4.69393 -6.23614 -51.10033 7.60138 9.37014 55.47496 -42.79996 1.43018 106.84792 122.50074 -62.62816 -7.43125 40.4834 6.12173 -10.24731 12.56497 -83.57223 -4.04188 3.94894 1.00636 6.89994 -3.12109 -11.47594 -8.71351 -2.8257 -12.22516 6.61037 10.17067 7.6902 -26.79713 -6.77373 3.22169 8.09779
0.01108 0.58039 -0.07119 187.07538 0 1.00135 1.13983 4.80933 -6.15183 -50.86155 7.547 9.4775 55.67529 -43.13105 4.0422 106.76408 123.17696 -61.98147 -7.53588 39.82461 5.8681 -10.84935 12.49882 -83.38631 -3.81529 3.84163 0.54525 6.96808 -3.52799 -10.64817 -8.88941 -2.86495 -11.77944 6.5492 10.04667 8.08333 -25.56439 -6.61147 3.11923 7.17028
0.0109 0.58043 -0.07117 187.3143 0 0.91842 1.0616 4.92316 -6.06691 -50.60347 7.50181 9.60163 55.87052 -43.41243 6.51131 106.70699 123.89365 -61.49669 -7.64177 39.15076 5.57694 -11.4296 12.39714 -83.15454 -3.55457 3.70406 0.06639 7.03007 -3.92856 -9.7729 -9.09576 -2.88824 -11.34495 6.52583 9.91799 8.47309 -24.43766 -6.41804 3.04657 6.26051
0.01071 0.58046 -0.07122 187.52695 0 0.8262 0.98611 5.04677 -5.98114 -50.35061 7.45501 9.74399 56.13898 -43.73571 9.15309 106.66213 124.69684 -60.98628 -7.75977 38.43672 5.26901 -12.11261 12.29141 -82.91563 -3.26688 3.55434 -0.44477 7.10339 -4.32408 -8.83642 -9.31761 -2.91938 -10.86977 6.47023 9.81157 8.89544 -23.2661 -6.1969 2.95761 5.20423
0.01052 0.58048 -0.07109 187.79561 0 0.75075 0.91203 5.1498 -5.89712 -50.09687 7.40687 9.83741 56.24964 -43.98977 11.48036 106.57651 125.28814 -60.45869 -7.8499 37.8208 5.01801 -12.58227 12.21337 -82.71309 -3.05517 3.44804 -0.87514 7.15487 -4.73318 -8.06051 -9.48947 -2.94168 -10.47911 6.46644 9.65865 9.24877 -22.14094 -6.05435 2.88808 4.46203
0.01038 0.58051 -0.07054 188.2212 0 0.72631 0.83242 5.19447 -5.82087 -49.83141 7.36267 9.81147 55.93419 -44.0351 12.90704 106.38316 125.32849 -59.96512 -7.86526 37.45696 4.89073 -12.43506 12.1816 -82.57462 -3.02687 3.43832 -1.09751 7.14404 -5.18098 -7.68815 -9.54288 -2.93075 -10.32046 6.6224 9.3755 9.40391 -21.1835 -6.11434 2.88944 4.62379
0.01024 0.58053 -0.06981 188.70163 0 0.71869 0.75335 5.21885 -5.74568 -49.56408 7.31745 9.73755 55.46172 -44.00559 14.00086 106.15258 125.15975 -59.47365 -7.85252 37.19176 4.81901 -12.07795 12.17629 -82.46809 -3.07157 3.47096 -1.24016 7.11101 -5.64039 -7.47399 -9.54849 -2.91008 -10.24765 6.83286 9.04605 9.49175 -20.28348 -6.25059 2.91133 5.09507
0.01008 0.58056 -0.06915 189.15442 0 0.70221 0.67483 5.25379 -5.66757 -49.29772 7.27086 9.68286 55.0597 -44.00562 15.22782 105.94549 125.08672 -58.99176 -7.85232 36.88585 4.72868 -11.8357 12.1651 -82.35039 -3.0844 3.48802 -1.41831 7.08814 -6.09116 -7.19148 -9.5754 -2.89467 -10.13737 7.01878 8.73904 9.61726 -19.36605 -6.34956 2.9211 5.39808
